<?xml version="1.0" encoding="UTF-8" standalone="no"?>
<svg
   xmlns:dc="http://purl.org/dc/elements/1.1/"
   xmlns:cc="http://creativecommons.org/ns#"
   xmlns:rdf="http://www.w3.org/1999/02/22-rdf-syntax-ns#"
   xmlns:svg="http://www.w3.org/2000/svg"
   xmlns="http://www.w3.org/2000/svg"
   xmlns:sodipodi="http://sodipodi.sourceforge.net/DTD/sodipodi-0.dtd"
   xmlns:inkscape="http://www.inkscape.org/namespaces/inkscape"
   version="1.1"
   viewBox="0.0 0.0 600.0 371.0"
   fill="none"
   stroke="none"
   stroke-linecap="square"
   stroke-miterlimit="10"
   width="600"
   height="371"
   id="svg67"
   sodipodi:docname="bycontext.svg"
   inkscape:version="0.92.3 (2405546, 2018-03-11)">
  <metadata
     id="metadata73">
    <rdf:RDF>
      <cc:Work
         rdf:about="">
        <dc:format>image/svg+xml</dc:format>
        <dc:type
           rdf:resource="http://purl.org/dc/dcmitype/StillImage" />
      </cc:Work>
    </rdf:RDF>
  </metadata>
  <defs
     id="defs71" />
  <sodipodi:namedview
     pagecolor="#ffffff"
     bordercolor="#666666"
     borderopacity="1"
     objecttolerance="10"
     gridtolerance="10"
     guidetolerance="10"
     inkscape:pageopacity="0"
     inkscape:pageshadow="2"
     inkscape:window-width="2560"
     inkscape:window-height="1379"
     id="namedview69"
     showgrid="false"
     inkscape:measure-start="0,0"
     inkscape:measure-end="0,0"
     inkscape:zoom="2.5191891"
     inkscape:cx="314.47534"
     inkscape:cy="171.60664"
     inkscape:window-x="0"
     inkscape:window-y="0"
     inkscape:window-maximized="1"
     inkscape:current-layer="svg67" />
  <path
     d="M 0,0 H 600 V 371 H 0 Z"
     id="path2"
     inkscape:connector-curvature="0"
     style="fill:#ffffff;fill-rule:nonzero" />
  <path
     stroke="#333333"
     stroke-width="1.0"
     stroke-linecap="butt"
     d="M45.5 318.5L581.5 318.5"
     fill-rule="nonzero"
     id="path4" />
  <path
     stroke="#cccccc"
     stroke-width="1.0"
     stroke-linecap="butt"
     d="M45.5 259.5L581.5 259.5"
     fill-rule="nonzero"
     id="path6" />
  <path
     stroke="#cccccc"
     stroke-width="1.0"
     stroke-linecap="butt"
     d="M45.5 201.5L581.5 201.5"
     fill-rule="nonzero"
     id="path8" />
  <path
     stroke="#cccccc"
     stroke-width="1.0"
     stroke-linecap="butt"
     d="M45.5 142.5L581.5 142.5"
     fill-rule="nonzero"
     id="path10" />
  <path
     stroke="#cccccc"
     stroke-width="1.0"
     stroke-linecap="butt"
     d="M45.5 84.5L581.5 84.5"
     fill-rule="nonzero"
     id="path12" />
  <path
     stroke="#cccccc"
     stroke-width="1.0"
     stroke-linecap="butt"
     d="M45.5 25.5L581.5 25.5"
     fill-rule="nonzero"
     id="path14" />
  <clipPath
     id="id_0">
    <path
       d="M45.55 25.55L581.45 25.55L581.45 318.45L45.55 318.45L45.55 25.55Z"
       clip-rule="nonzero"
       id="path16" />
  </clipPath>
  <path
     stroke="#000000"
     stroke-width="0.0"
     stroke-linecap="butt"
     stroke-opacity="0.0"
     clip-path="url(#id_0)"
     d="M146.0 318.0L81.0 318.0L81.0 154.0C81.0 152.89543 81.89543 152.0 83.0 152.0L144.0 152.0C145.10457 152.0 146.0 152.89543 146.0 154.0Z"
     fill-rule="nonzero"
     id="path19" />
  <path
     fill="#4285f4"
     clip-path="url(#id_0)"
     d="M146.0 318.0L81.0 318.0L81.0 154.0C81.0 152.89543 81.89543 152.0 83.0 152.0L144.0 152.0C145.10457 152.0 146.0 152.89543 146.0 154.0Z"
     fill-rule="nonzero"
     id="path21" />
  <path
     stroke="#000000"
     stroke-width="0.0"
     stroke-linecap="butt"
     stroke-opacity="0.0"
     clip-path="url(#id_0)"
     d="M246.0 318.0L181.0 318.0L181.0 116.0C181.0 114.89543 181.89543 114.0 183.0 114.0L244.0 114.0C245.10457 114.0 246.0 114.89543 246.0 116.0Z"
     fill-rule="nonzero"
     id="path23" />
  <path
     fill="#4285f4"
     clip-path="url(#id_0)"
     d="M246.0 318.0L181.0 318.0L181.0 116.0C181.0 114.89543 181.89543 114.0 183.0 114.0L244.0 114.0C245.10457 114.0 246.0 114.89543 246.0 116.0Z"
     fill-rule="nonzero"
     id="path25" />
  <path
     stroke="#000000"
     stroke-width="0.0"
     stroke-linecap="butt"
     stroke-opacity="0.0"
     clip-path="url(#id_0)"
     d="M347.0 318.0L282.0 318.0L282.0 116.0C282.0 114.89543 282.89542 114.0 284.0 114.0L345.0 114.0C346.10458 114.0 347.0 114.89543 347.0 116.0Z"
     fill-rule="nonzero"
     id="path27" />
  <path
     fill="#4285f4"
     clip-path="url(#id_0)"
     d="M347.0 318.0L282.0 318.0L282.0 116.0C282.0 114.89543 282.89542 114.0 284.0 114.0L345.0 114.0C346.10458 114.0 347.0 114.89543 347.0 116.0Z"
     fill-rule="nonzero"
     id="path29" />
  <path
     stroke="#000000"
     stroke-width="0.0"
     stroke-linecap="butt"
     stroke-opacity="0.0"
     clip-path="url(#id_0)"
     d="M447.0 318.0L382.0 318.0L382.0 81.0C382.0 79.89543 382.89542 79.0 384.0 79.0L445.0 79.0C446.10458 79.0 447.0 79.89543 447.0 81.0Z"
     fill-rule="nonzero"
     id="path31" />
  <path
     fill="#4285f4"
     clip-path="url(#id_0)"
     d="M447.0 318.0L382.0 318.0L382.0 81.0C382.0 79.89543 382.89542 79.0 384.0 79.0L445.0 79.0C446.10458 79.0 447.0 79.89543 447.0 81.0Z"
     fill-rule="nonzero"
     id="path33" />
  <path
     stroke="#000000"
     stroke-width="0.0"
     stroke-linecap="butt"
     stroke-opacity="0.0"
     clip-path="url(#id_0)"
     d="M547.0 318.0L482.0 318.0L482.0 81.0C482.0 79.89543 482.89542 79.0 484.0 79.0L545.0 79.0C546.10455 79.0 547.0 79.89543 547.0 81.0Z"
     fill-rule="nonzero"
     id="path35" />
  <path
     fill="#4285f4"
     clip-path="url(#id_0)"
     d="M547.0 318.0L482.0 318.0L482.0 81.0C482.0 79.89543 482.89542 79.0 484.0 79.0L545.0 79.0C546.10455 79.0 547.0 79.89543 547.0 81.0Z"
     fill-rule="nonzero"
     id="path37" />
  <path
     fill="#000000"
     d="M33.05 318.21564Q33.05 316.6844 33.3625 315.7625Q33.675 314.825 34.284374 314.325Q34.909374 313.825 35.846874 313.825Q36.534374 313.825 37.05 314.10626Q37.58125 314.3875 37.925 314.91876Q38.26875 315.4344 38.45625 316.1844Q38.64375 316.9344 38.64375 318.21564Q38.64375 319.73126 38.33125 320.65314Q38.034374 321.575 37.409374 322.09064Q36.8 322.59064 35.846874 322.59064Q34.6125 322.59064 33.89375 321.7Q33.05 320.6375 33.05 318.21564ZM34.128124 318.21564Q34.128124 320.325 34.628124 321.02814Q35.128124 321.73126 35.846874 321.73126Q36.58125 321.73126 37.065624 321.02814Q37.565624 320.325 37.565624 318.21564Q37.565624 316.09064 37.065624 315.40314Q36.58125 314.7 35.83125 314.7Q35.1125 314.7 34.675 315.3094Q34.128124 316.09064 34.128124 318.21564Z"
     fill-rule="nonzero"
     id="path39" />
  <path
     fill="#000000"
     d="M38.596874 262.85437L38.596874 263.87L32.909374 263.87Q32.909374 263.495 33.034374 263.13562Q33.253124 262.5575 33.721874 261.995Q34.20625 261.4325 35.1125 260.69812Q36.51875 259.54187 37.003124 258.87Q37.503124 258.19812 37.503124 257.60437Q37.503124 256.97937 37.05 256.5575Q36.596874 256.12 35.878124 256.12Q35.1125 256.12 34.659374 256.57312Q34.20625 257.02625 34.190624 257.83875L33.1125 257.72937Q33.221874 256.51062 33.940624 255.88562Q34.675 255.245 35.909374 255.245Q37.14375 255.245 37.8625 255.9325Q38.58125 256.62 38.58125 257.63562Q38.58125 258.15125 38.3625 258.65125Q38.159374 259.13562 37.659374 259.69812Q37.175 260.245 36.05 261.19812Q35.096874 261.995 34.815624 262.29187Q34.55 262.57312 34.378124 262.85437L38.596874 262.85437Z"
     fill-rule="nonzero"
     id="path41" />
  <path
     fill="#000000"
     d="M36.425 205.29L36.425 203.2275L32.70625 203.2275L32.70625 202.25874L36.628124 196.69624L37.4875 196.69624L37.4875 202.25874L38.64375 202.25874L38.64375 203.2275L37.4875 203.2275L37.4875 205.29L36.425 205.29ZM36.425 202.25874L36.425 198.39937L33.7375 202.25874L36.425 202.25874Z"
     fill-rule="nonzero"
     id="path43" />
  <path
     fill="#000000"
     d="M38.51875 140.22563L37.471874 140.30376Q37.33125 139.67876 37.08125 139.3975Q36.64375 138.94438 36.01875 138.94438Q35.51875 138.94438 35.128124 139.22563Q34.64375 139.60063 34.346874 140.30376Q34.065624 140.99126 34.05 142.2725Q34.425 141.69438 34.971874 141.41313Q35.534374 141.13188 36.14375 141.13188Q37.190624 141.13188 37.925 141.91313Q38.675 142.69438 38.675 143.91313Q38.675 144.72563 38.315624 145.42876Q37.971874 146.11626 37.3625 146.49126Q36.753124 146.85063 35.9875 146.85063Q34.659374 146.85063 33.83125 145.88188Q33.003124 144.91313 33.003124 142.69438Q33.003124 140.19438 33.925 139.06938Q34.721874 138.085 36.08125 138.085Q37.096874 138.085 37.7375 138.66313Q38.39375 139.22563 38.51875 140.22563ZM34.221874 143.92876Q34.221874 144.47563 34.440624 144.97563Q34.675 145.46 35.08125 145.72563Q35.503124 145.99126 35.971874 145.99126Q36.628124 145.99126 37.1125 145.46Q37.596874 144.91313 37.596874 143.99126Q37.596874 143.10063 37.1125 142.585Q36.64375 142.06938 35.925 142.06938Q35.20625 142.06938 34.70625 142.585Q34.221874 143.10063 34.221874 143.92876Z"
     fill-rule="nonzero"
     id="path45" />
  <path
     fill="#000000"
     d="M34.675 83.47375Q34.01875 83.22375 33.690624 82.78625Q33.378124 82.33312 33.378124 81.72375Q33.378124 80.78625 34.05 80.14562Q34.7375 79.505 35.846874 79.505Q36.971874 79.505 37.659374 80.16125Q38.346874 80.8175 38.346874 81.755Q38.346874 82.34875 38.034374 82.78625Q37.721874 83.22375 37.08125 83.47375Q37.878124 83.72375 38.284374 84.30187Q38.690624 84.88 38.690624 85.67687Q38.690624 86.77062 37.909374 87.52062Q37.14375 88.27062 35.8625 88.27062Q34.596874 88.27062 33.815624 87.52062Q33.034374 86.77062 33.034374 85.64562Q33.034374 84.80187 33.45625 84.23937Q33.89375 83.67687 34.675 83.47375ZM34.45625 81.67687Q34.45625 82.28625 34.846874 82.67687Q35.253124 83.0675 35.878124 83.0675Q36.4875 83.0675 36.878124 82.6925Q37.26875 82.30187 37.26875 81.73937Q37.26875 81.16125 36.8625 80.77062Q36.45625 80.36437 35.8625 80.36437Q35.253124 80.36437 34.846874 80.755Q34.45625 81.14562 34.45625 81.67687ZM34.128124 85.64562Q34.128124 86.09875 34.33125 86.52062Q34.55 86.9425 34.971874 87.17687Q35.39375 87.41125 35.878124 87.41125Q36.628124 87.41125 37.1125 86.92687Q37.6125 86.4425 37.6125 85.6925Q37.6125 84.92687 37.1125 84.42687Q36.6125 83.92687 35.846874 83.92687Q35.096874 83.92687 34.6125 84.42687Q34.128124 84.91125 34.128124 85.64562Z"
     fill-rule="nonzero"
     id="path47" />
  <path
     fill="#000000"
     d="M30.01875 29.55L28.971874 29.55L28.971874 22.83125Q28.58125 23.190624 27.95625 23.565624Q27.346874 23.925 26.8625 24.096874L26.8625 23.08125Q27.7375 22.659374 28.39375 22.08125Q29.065624 21.4875 29.346874 20.925L30.01875 20.925L30.01875 29.55ZM33.05 25.315624Q33.05 23.784374 33.3625 22.8625Q33.675 21.925 34.284374 21.425Q34.909374 20.925 35.846874 20.925Q36.534374 20.925 37.05 21.20625Q37.58125 21.4875 37.925 22.01875Q38.26875 22.534374 38.45625 23.284374Q38.64375 24.034374 38.64375 25.315624Q38.64375 26.83125 38.33125 27.753124Q38.034374 28.675 37.409374 29.190624Q36.8 29.690624 35.846874 29.690624Q34.6125 29.690624 33.89375 28.8Q33.05 27.7375 33.05 25.315624ZM34.128124 25.315624Q34.128124 27.425 34.628124 28.128124Q35.128124 28.83125 35.846874 28.83125Q36.58125 28.83125 37.065624 28.128124Q37.565624 27.425 37.565624 25.315624Q37.565624 23.190624 37.065624 22.503124Q36.58125 21.8 35.83125 21.8Q35.1125 21.8 34.675 22.409374Q34.128124 23.190624 34.128124 25.315624Z"
     fill-rule="nonzero"
     id="path49" />
  <text
     xml:space="preserve"
     style="font-style:normal;font-weight:normal;font-size:12px;line-height:1.25;font-family:sans-serif;letter-spacing:0px;word-spacing:0px;fill:#000000;fill-opacity:1;stroke:none"
     x="93.466797"
     y="336.05289"
     id="text3780"><tspan
       sodipodi:role="line"
       id="tspan3778"
       x="93.466797"
       y="336.05289">normal</tspan></text>
  <text
     xml:space="preserve"
     style="font-style:normal;font-weight:normal;font-size:12px;line-height:1.25;font-family:sans-serif;letter-spacing:0px;word-spacing:0px;fill:#000000;fill-opacity:1;stroke:none"
     x="186.32336"
     y="336.04117"
     id="text3802"><tspan
       sodipodi:role="line"
       id="tspan3800"
       x="186.32336"
       y="336.04117">async (0)</tspan></text>
  <text
     xml:space="preserve"
     style="font-style:normal;font-weight:normal;font-size:12px;line-height:1.25;font-family:sans-serif;letter-spacing:0px;word-spacing:0px;fill:#000000;fill-opacity:1;stroke:none"
     x="280.81345"
     y="336.04117"
     id="text3808"><tspan
       sodipodi:role="line"
       id="tspan3806"
       x="280.81345"
       y="336.04117">async (1x1)</tspan></text>
  <text
     xml:space="preserve"
     style="font-style:normal;font-weight:normal;font-size:12px;line-height:1.25;font-family:sans-serif;letter-spacing:0px;word-spacing:0px;fill:#000000;fill-opacity:1;stroke:none"
     x="370.1279"
     y="336.04117"
     id="text3812"><tspan
       sodipodi:role="line"
       id="tspan3810"
       x="370.1279"
       y="336.04117">async (1x1000)</tspan></text>
  <text
     xml:space="preserve"
     style="font-style:normal;font-weight:normal;font-size:12px;line-height:1.25;font-family:sans-serif;letter-spacing:0px;word-spacing:0px;fill:#000000;fill-opacity:1;stroke:none"
     x="471.30524"
     y="336.04117"
     id="text3816"><tspan
       sodipodi:role="line"
       id="tspan3814"
       x="471.30524"
       y="336.04117">async (0x1000)</tspan></text>
</svg>
