<svg version="1.1" viewBox="0.0 0.0 600.0 371.0" fill="none" stroke="none" stroke-linecap="square" stroke-miterlimit="10" width="600" height="371" xmlns:xlink="http://www.w3.org/1999/xlink" xmlns="http://www.w3.org/2000/svg"><path fill="#ffffff" d="M0 0L600.0 0L600.0 371.0L0 371.0L0 0Z" fill-rule="nonzero"/><path stroke="#333333" stroke-width="1.0" stroke-linecap="butt" d="M98.5 332.5L581.5 332.5" fill-rule="nonzero"/><path stroke="#cccccc" stroke-width="1.0" stroke-linecap="butt" d="M98.5 230.5L581.5 230.5" fill-rule="nonzero"/><path stroke="#cccccc" stroke-width="1.0" stroke-linecap="butt" d="M98.5 127.5L581.5 127.5" fill-rule="nonzero"/><path stroke="#cccccc" stroke-width="1.0" stroke-linecap="butt" d="M98.5 25.5L581.5 25.5" fill-rule="nonzero"/><clipPath id="id_0"><path d="M98.55 25.55L581.45 25.55L581.45 332.45L98.55 332.45L98.55 25.55Z" clip-rule="nonzero"/></clipPath><path stroke="#000000" stroke-width="0.0" stroke-linecap="butt" stroke-opacity="0.0" clip-path="url(#id_0)" d="M243.0 332.0L149.0 332.0L149.0 301.0C149.0 299.89542 149.89543 299.0 151.0 299.0L241.0 299.0C242.10457 299.0 243.0 299.89542 243.0 301.0Z" fill-rule="nonzero"/><path fill="#4285f4" clip-path="url(#id_0)" d="M243.0 332.0L149.0 332.0L149.0 301.0C149.0 299.89542 149.89543 299.0 151.0 299.0L241.0 299.0C242.10457 299.0 243.0 299.89542 243.0 301.0Z" fill-rule="nonzero"/><path stroke="#000000" stroke-width="0.0" stroke-linecap="butt" stroke-opacity="0.0" clip-path="url(#id_0)" d="M387.0 332.0L293.0 332.0L293.0 78.0C293.0 76.89543 293.89542 76.0 295.0 76.0L385.0 76.0C386.10458 76.0 387.0 76.89543 387.0 78.0Z" fill-rule="nonzero"/><path fill="#4285f4" clip-path="url(#id_0)" d="M387.0 332.0L293.0 332.0L293.0 78.0C293.0 76.89543 293.89542 76.0 295.0 76.0L385.0 76.0C386.10458 76.0 387.0 76.89543 387.0 78.0Z" fill-rule="nonzero"/><path stroke="#000000" stroke-width="0.0" stroke-linecap="butt" stroke-opacity="0.0" clip-path="url(#id_0)" d="M531.0 332.0L437.0 332.0L437.0 286.0C437.0 284.89542 437.89542 284.0 439.0 284.0L529.0 284.0C530.10455 284.0 531.0 284.89542 531.0 286.0Z" fill-rule="nonzero"/><path fill="#4285f4" clip-path="url(#id_0)" d="M531.0 332.0L437.0 332.0L437.0 286.0C437.0 284.89542 437.89542 284.0 439.0 284.0L529.0 284.0C530.10455 284.0 531.0 284.89542 531.0 286.0Z" fill-rule="nonzero"/><path fill="#000000" d="M29.550013 198.23438L29.550013 199.21875L20.956263 199.21875L20.956263 198.15625L24.018763 198.15625Q23.190638 197.48438 23.190638 196.45312Q23.190638 195.875 23.425013 195.375Q23.643763 194.85938 24.065638 194.53125Q24.487513 194.1875 25.081263 194.0Q25.675013 193.8125 26.346888 193.8125Q27.940638 193.8125 28.815638 194.60938Q29.690638 195.40625 29.690638 196.5Q29.690638 197.60938 28.768763 198.23438L29.550013 198.23438ZM26.393763 198.25Q27.503138 198.25 28.003138 197.9375Q28.815638 197.4375 28.815638 196.59375Q28.815638 195.90625 28.221888 195.40625Q27.628138 194.89062 26.425013 194.89062Q25.206263 194.89062 24.628138 195.375Q24.050013 195.85938 24.050013 196.54688Q24.050013 197.23438 24.659388 197.75Q25.253138 198.25 26.393763 198.25ZM31.940638 192.25L30.956263 192.375Q31.050013 192.03125 31.050013 191.76562Q31.050013 191.42188 30.925013 191.21875Q30.815638 191.0 30.612513 190.85938Q30.440638 190.76562 29.815638 190.53125Q29.737513 190.51562 29.565638 190.4375L23.331263 192.8125L23.331263 191.67188L26.925013 190.375Q27.612513 190.125 28.378138 189.92188Q27.643763 189.73438 26.956263 189.48438L23.331263 188.15625L23.331263 187.10938L29.659388 189.46875Q30.675013 189.85938 31.065638 190.0625Q31.596888 190.34375 31.831263 190.71875Q32.08126 191.07812 32.08126 191.57812Q32.08126 191.875 31.940638 192.25ZM28.612513 183.90625L29.534388 183.75Q29.628138 184.20312 29.628138 184.54688Q29.628138 185.125 29.456263 185.4375Q29.268763 185.75 28.971888 185.89062Q28.675013 186.01562 27.721888 186.01562L24.143763 186.01562L24.143763 186.78125L23.331263 186.78125L23.331263 186.01562L21.784388 186.01562L21.159388 184.96875L23.331263 184.96875L23.331263 183.90625L24.143763 183.90625L24.143763 184.96875L27.784388 184.96875Q28.237513 184.96875 28.362513 184.92188Q28.487513 184.85938 28.565638 184.73438Q28.643763 184.60938 28.643763 184.375Q28.643763 184.1875 28.612513 183.90625ZM27.550013 178.95312L27.675013 177.85938Q28.628138 178.10938 29.159388 178.8125Q29.690638 179.51562 29.690638 180.59375Q29.690638 181.95312 28.846888 182.76562Q28.003138 183.5625 26.487513 183.5625Q24.925013 183.5625 24.065638 182.75Q23.190638 181.9375 23.190638 180.65625Q23.190638 179.40625 24.034388 178.625Q24.878138 177.82812 26.425013 177.82812Q26.518763 177.82812 26.706263 177.82812L26.706263 182.46875Q27.737513 182.40625 28.284388 181.89062Q28.815638 181.375 28.815638 180.59375Q28.815638 180.01562 28.518763 179.60938Q28.206263 179.1875 27.550013 178.95312ZM25.846888 182.40625L25.846888 178.9375Q25.050013 179.0 24.659388 179.32812Q24.050013 179.84375 24.050013 180.64062Q24.050013 181.375 24.534388 181.875Q25.018763 182.35938 25.846888 182.40625ZM27.690638 176.625L27.534388 175.59375Q28.159388 175.5 28.487513 175.10938Q28.815638 174.70312 28.815638 173.96875Q28.815638 173.25 28.534388 172.90625Q28.237513 172.54688 27.831263 172.54688Q27.471888 172.54688 27.268763 172.85938Q27.128138 173.07812 26.909388 173.9375Q26.612513 175.09375 26.409388 175.54688Q26.190638 175.98438 25.815638 176.21875Q25.440638 176.45312 24.971888 176.45312Q24.565638 176.45312 24.206263 176.26562Q23.846888 176.07812 23.612513 175.75Q23.440638 175.5 23.315638 175.07812Q23.190638 174.65625 23.190638 174.15625Q23.190638 173.4375 23.409388 172.89062Q23.612513 172.32812 23.971888 172.0625Q24.331263 171.79688 24.925013 171.70312L25.065638 172.73438Q24.596888 172.79688 24.331263 173.14062Q24.050013 173.46875 24.050013 174.09375Q24.050013 174.8125 24.300013 175.125Q24.534388 175.4375 24.862513 175.4375Q25.065638 175.4375 25.221888 175.3125Q25.393763 175.17188 25.503138 174.90625Q25.565638 174.75 25.768763 173.96875Q26.081263 172.84375 26.268763 172.40625Q26.456263 171.96875 26.815638 171.71875Q27.175013 171.46875 27.721888 171.46875Q28.253138 171.46875 28.721888 171.78125Q29.175013 172.07812 29.440638 172.65625Q29.690638 173.23438 29.690638 173.96875Q29.690638 175.1875 29.190638 175.82812Q28.675013 176.45312 27.690638 176.625Z" fill-rule="nonzero"/><path fill="#000000" d="M86.05 332.21564Q86.05 330.6844 86.3625 329.7625Q86.675 328.825 87.28438 328.325Q87.90938 327.825 88.84688 327.825Q89.53438 327.825 90.05 328.10626Q90.58125 328.3875 90.925 328.91876Q91.26875 329.4344 91.45625 330.1844Q91.64375 330.9344 91.64375 332.21564Q91.64375 333.73126 91.33125 334.65314Q91.03438 335.575 90.40938 336.09064Q89.8 336.59064 88.84688 336.59064Q87.6125 336.59064 86.89375 335.7Q86.05 334.6375 86.05 332.21564ZM87.12813 332.21564Q87.12813 334.325 87.62813 335.02814Q88.12813 335.73126 88.84688 335.73126Q89.58125 335.73126 90.06563 335.02814Q90.56563 334.325 90.56563 332.21564Q90.56563 330.09064 90.06563 329.40314Q89.58125 328.7 88.83125 328.7Q88.1125 328.7 87.675 329.3094Q87.12813 330.09064 87.12813 332.21564Z" fill-rule="nonzero"/><path fill="#000000" d="M58.05 231.9L59.159374 231.80624Q59.284374 232.61874 59.721874 233.025Q60.175 233.43124 60.815624 233.43124Q61.565624 233.43124 62.096874 232.85312Q62.628124 232.275 62.628124 231.3375Q62.628124 230.43124 62.1125 229.91562Q61.6125 229.38437 60.784374 229.38437Q60.284374 229.38437 59.8625 229.61874Q59.45625 229.85312 59.221874 230.2125L58.2375 230.0875L59.065624 225.68124L63.346874 225.68124L63.346874 226.68124L59.909374 226.68124L59.45625 228.99374Q60.221874 228.44687 61.065624 228.44687Q62.190624 228.44687 62.95625 229.22812Q63.7375 230.00937 63.7375 231.24374Q63.7375 232.4 63.065624 233.25937Q62.2375 234.29062 60.815624 234.29062Q59.64375 234.29062 58.89375 233.63437Q58.159374 232.97812 58.05 231.9ZM65.05 229.91562Q65.05 228.38437 65.3625 227.4625Q65.675 226.525 66.28438 226.025Q66.90938 225.525 67.84688 225.525Q68.53438 225.525 69.05 225.80624Q69.58125 226.0875 69.925 226.61874Q70.26875 227.13437 70.45625 227.88437Q70.64375 228.63437 70.64375 229.91562Q70.64375 231.43124 70.33125 232.35312Q70.03438 233.275 69.40938 233.79062Q68.8 234.29062 67.84688 234.29062Q66.6125 234.29062 65.89375 233.4Q65.05 232.3375 65.05 229.91562ZM66.12813 229.91562Q66.12813 232.025 66.62813 232.72812Q67.12813 233.43124 67.84688 233.43124Q68.58125 233.43124 69.06563 232.72812Q69.56563 232.025 69.56563 229.91562Q69.56563 227.79062 69.06563 227.10312Q68.58125 226.4 67.83125 226.4Q67.1125 226.4 66.675 227.00937Q66.12813 227.79062 66.12813 229.91562ZM72.05 229.91562Q72.05 228.38437 72.3625 227.4625Q72.675 226.525 73.28438 226.025Q73.90938 225.525 74.84688 225.525Q75.53438 225.525 76.05 225.80624Q76.58125 226.0875 76.925 226.61874Q77.26875 227.13437 77.45625 227.88437Q77.64375 228.63437 77.64375 229.91562Q77.64375 231.43124 77.33125 232.35312Q77.03438 233.275 76.40938 233.79062Q75.8 234.29062 74.84688 234.29062Q73.6125 234.29062 72.89375 233.4Q72.05 232.3375 72.05 229.91562ZM73.12813 229.91562Q73.12813 232.025 73.62813 232.72812Q74.12813 233.43124 74.84688 233.43124Q75.58125 233.43124 76.06563 232.72812Q76.56563 232.025 76.56563 229.91562Q76.56563 227.79062 76.06563 227.10312Q75.58125 226.4 74.83125 226.4Q74.1125 226.4 73.675 227.00937Q73.12813 227.79062 73.12813 229.91562ZM79.05 229.91562Q79.05 228.38437 79.3625 227.4625Q79.675 226.525 80.28438 226.025Q80.90938 225.525 81.84688 225.525Q82.53438 225.525 83.05 225.80624Q83.58125 226.0875 83.925 226.61874Q84.26875 227.13437 84.45625 227.88437Q84.64375 228.63437 84.64375 229.91562Q84.64375 231.43124 84.33125 232.35312Q84.03438 233.275 83.40938 233.79062Q82.8 234.29062 81.84688 234.29062Q80.6125 234.29062 79.89375 233.4Q79.05 232.3375 79.05 229.91562ZM80.12813 229.91562Q80.12813 232.025 80.62813 232.72812Q81.12813 233.43124 81.84688 233.43124Q82.58125 233.43124 83.06563 232.72812Q83.56563 232.025 83.56563 229.91562Q83.56563 227.79062 83.06563 227.10312Q82.58125 226.4 81.83125 226.4Q81.1125 226.4 80.675 227.00937Q80.12813 227.79062 80.12813 229.91562ZM86.05 229.91562Q86.05 228.38437 86.3625 227.4625Q86.675 226.525 87.28438 226.025Q87.90938 225.525 88.84688 225.525Q89.53438 225.525 90.05 225.80624Q90.58125 226.0875 90.925 226.61874Q91.26875 227.13437 91.45625 227.88437Q91.64375 228.63437 91.64375 229.91562Q91.64375 231.43124 91.33125 232.35312Q91.03438 233.275 90.40938 233.79062Q89.8 234.29062 88.84688 234.29062Q87.6125 234.29062 86.89375 233.4Q86.05 232.3375 86.05 229.91562ZM87.12813 229.91562Q87.12813 232.025 87.62813 232.72812Q88.12813 233.43124 88.84688 233.43124Q89.58125 233.43124 90.06563 232.72812Q90.56563 232.025 90.56563 229.91562Q90.56563 227.79062 90.06563 227.10312Q89.58125 226.4 88.83125 226.4Q88.1125 226.4 87.675 227.00937Q87.12813 227.79062 87.12813 229.91562Z" fill-rule="nonzero"/><path fill="#000000" d="M55.01875 131.85L53.971874 131.85L53.971874 125.131256Q53.58125 125.49063 52.95625 125.86563Q52.346874 126.225006 51.8625 126.39688L51.8625 125.381256Q52.7375 124.95938 53.39375 124.381256Q54.065624 123.787506 54.346874 123.225006L55.01875 123.225006L55.01875 131.85ZM58.05 127.61563Q58.05 126.08438 58.3625 125.162506Q58.675 124.225006 59.284374 123.725006Q59.909374 123.225006 60.846874 123.225006Q61.534374 123.225006 62.05 123.506256Q62.58125 123.787506 62.925 124.318756Q63.26875 124.83438 63.45625 125.58438Q63.64375 126.33438 63.64375 127.61563Q63.64375 129.13126 63.33125 130.05313Q63.034374 130.975 62.409374 131.49063Q61.8 131.99063 60.846874 131.99063Q59.6125 131.99063 58.89375 131.1Q58.05 130.0375 58.05 127.61563ZM59.128124 127.61563Q59.128124 129.725 59.628124 130.42813Q60.128124 131.13126 60.846874 131.13126Q61.58125 131.13126 62.065624 130.42813Q62.565624 129.725 62.565624 127.61563Q62.565624 125.49063 62.065624 124.80313Q61.58125 124.100006 60.83125 124.100006Q60.1125 124.100006 59.675 124.70938Q59.128124 125.49063 59.128124 127.61563ZM65.05 127.61563Q65.05 126.08438 65.3625 125.162506Q65.675 124.225006 66.28438 123.725006Q66.90938 123.225006 67.84688 123.225006Q68.53438 123.225006 69.05 123.506256Q69.58125 123.787506 69.925 124.318756Q70.26875 124.83438 70.45625 125.58438Q70.64375 126.33438 70.64375 127.61563Q70.64375 129.13126 70.33125 130.05313Q70.03438 130.975 69.40938 131.49063Q68.8 131.99063 67.84688 131.99063Q66.6125 131.99063 65.89375 131.1Q65.05 130.0375 65.05 127.61563ZM66.12813 127.61563Q66.12813 129.725 66.62813 130.42813Q67.12813 131.13126 67.84688 131.13126Q68.58125 131.13126 69.06563 130.42813Q69.56563 129.725 69.56563 127.61563Q69.56563 125.49063 69.06563 124.80313Q68.58125 124.100006 67.83125 124.100006Q67.1125 124.100006 66.675 124.70938Q66.12813 125.49063 66.12813 127.61563ZM72.05 127.61563Q72.05 126.08438 72.3625 125.162506Q72.675 124.225006 73.28438 123.725006Q73.90938 123.225006 74.84688 123.225006Q75.53438 123.225006 76.05 123.506256Q76.58125 123.787506 76.925 124.318756Q77.26875 124.83438 77.45625 125.58438Q77.64375 126.33438 77.64375 127.61563Q77.64375 129.13126 77.33125 130.05313Q77.03438 130.975 76.40938 131.49063Q75.8 131.99063 74.84688 131.99063Q73.6125 131.99063 72.89375 131.1Q72.05 130.0375 72.05 127.61563ZM73.12813 127.61563Q73.12813 129.725 73.62813 130.42813Q74.12813 131.13126 74.84688 131.13126Q75.58125 131.13126 76.06563 130.42813Q76.56563 129.725 76.56563 127.61563Q76.56563 125.49063 76.06563 124.80313Q75.58125 124.100006 74.83125 124.100006Q74.1125 124.100006 73.675 124.70938Q73.12813 125.49063 73.12813 127.61563ZM79.05 127.61563Q79.05 126.08438 79.3625 125.162506Q79.675 124.225006 80.28438 123.725006Q80.90938 123.225006 81.84688 123.225006Q82.53438 123.225006 83.05 123.506256Q83.58125 123.787506 83.925 124.318756Q84.26875 124.83438 84.45625 125.58438Q84.64375 126.33438 84.64375 127.61563Q84.64375 129.13126 84.33125 130.05313Q84.03438 130.975 83.40938 131.49063Q82.8 131.99063 81.84688 131.99063Q80.6125 131.99063 79.89375 131.1Q79.05 130.0375 79.05 127.61563ZM80.12813 127.61563Q80.12813 129.725 80.62813 130.42813Q81.12813 131.13126 81.84688 131.13126Q82.58125 131.13126 83.06563 130.42813Q83.56563 129.725 83.56563 127.61563Q83.56563 125.49063 83.06563 124.80313Q82.58125 124.100006 81.83125 124.100006Q81.1125 124.100006 80.675 124.70938Q80.12813 125.49063 80.12813 127.61563ZM86.05 127.61563Q86.05 126.08438 86.3625 125.162506Q86.675 124.225006 87.28438 123.725006Q87.90938 123.225006 88.84688 123.225006Q89.53438 123.225006 90.05 123.506256Q90.58125 123.787506 90.925 124.318756Q91.26875 124.83438 91.45625 125.58438Q91.64375 126.33438 91.64375 127.61563Q91.64375 129.13126 91.33125 130.05313Q91.03438 130.975 90.40938 131.49063Q89.8 131.99063 88.84688 131.99063Q87.6125 131.99063 86.89375 131.1Q86.05 130.0375 86.05 127.61563ZM87.12813 127.61563Q87.12813 129.725 87.62813 130.42813Q88.12813 131.13126 88.84688 131.13126Q89.58125 131.13126 90.06563 130.42813Q90.56563 129.725 90.56563 127.61563Q90.56563 125.49063 90.06563 124.80313Q89.58125 124.100006 88.83125 124.100006Q88.1125 124.100006 87.675 124.70938Q87.12813 125.49063 87.12813 127.61563Z" fill-rule="nonzero"/><path fill="#000000" d="M55.01875 29.55L53.971874 29.55L53.971874 22.83125Q53.58125 23.190624 52.95625 23.565624Q52.346874 23.925 51.8625 24.096874L51.8625 23.08125Q52.7375 22.659374 53.39375 22.08125Q54.065624 21.4875 54.346874 20.925L55.01875 20.925L55.01875 29.55ZM58.05 27.3L59.159374 27.20625Q59.284374 28.01875 59.721874 28.425Q60.175 28.83125 60.815624 28.83125Q61.565624 28.83125 62.096874 28.253124Q62.628124 27.675 62.628124 26.7375Q62.628124 25.83125 62.1125 25.315624Q61.6125 24.784374 60.784374 24.784374Q60.284374 24.784374 59.8625 25.01875Q59.45625 25.253124 59.221874 25.6125L58.2375 25.4875L59.065624 21.08125L63.346874 21.08125L63.346874 22.08125L59.909374 22.08125L59.45625 24.39375Q60.221874 23.846874 61.065624 23.846874Q62.190624 23.846874 62.95625 24.628124Q63.7375 25.409374 63.7375 26.64375Q63.7375 27.8 63.065624 28.659374Q62.2375 29.690624 60.815624 29.690624Q59.64375 29.690624 58.89375 29.034374Q58.159374 28.378124 58.05 27.3ZM65.05 25.315624Q65.05 23.784374 65.3625 22.8625Q65.675 21.925 66.28438 21.425Q66.90938 20.925 67.84688 20.925Q68.53438 20.925 69.05 21.20625Q69.58125 21.4875 69.925 22.01875Q70.26875 22.534374 70.45625 23.284374Q70.64375 24.034374 70.64375 25.315624Q70.64375 26.83125 70.33125 27.753124Q70.03438 28.675 69.40938 29.190624Q68.8 29.690624 67.84688 29.690624Q66.6125 29.690624 65.89375 28.8Q65.05 27.7375 65.05 25.315624ZM66.12813 25.315624Q66.12813 27.425 66.62813 28.128124Q67.12813 28.83125 67.84688 28.83125Q68.58125 28.83125 69.06563 28.128124Q69.56563 27.425 69.56563 25.315624Q69.56563 23.190624 69.06563 22.503124Q68.58125 21.8 67.83125 21.8Q67.1125 21.8 66.675 22.409374Q66.12813 23.190624 66.12813 25.315624ZM72.05 25.315624Q72.05 23.784374 72.3625 22.8625Q72.675 21.925 73.28438 21.425Q73.90938 20.925 74.84688 20.925Q75.53438 20.925 76.05 21.20625Q76.58125 21.4875 76.925 22.01875Q77.26875 22.534374 77.45625 23.284374Q77.64375 24.034374 77.64375 25.315624Q77.64375 26.83125 77.33125 27.753124Q77.03438 28.675 76.40938 29.190624Q75.8 29.690624 74.84688 29.690624Q73.6125 29.690624 72.89375 28.8Q72.05 27.7375 72.05 25.315624ZM73.12813 25.315624Q73.12813 27.425 73.62813 28.128124Q74.12813 28.83125 74.84688 28.83125Q75.58125 28.83125 76.06563 28.128124Q76.56563 27.425 76.56563 25.315624Q76.56563 23.190624 76.06563 22.503124Q75.58125 21.8 74.83125 21.8Q74.1125 21.8 73.675 22.409374Q73.12813 23.190624 73.12813 25.315624ZM79.05 25.315624Q79.05 23.784374 79.3625 22.8625Q79.675 21.925 80.28438 21.425Q80.90938 20.925 81.84688 20.925Q82.53438 20.925 83.05 21.20625Q83.58125 21.4875 83.925 22.01875Q84.26875 22.534374 84.45625 23.284374Q84.64375 24.034374 84.64375 25.315624Q84.64375 26.83125 84.33125 27.753124Q84.03438 28.675 83.40938 29.190624Q82.8 29.690624 81.84688 29.690624Q80.6125 29.690624 79.89375 28.8Q79.05 27.7375 79.05 25.315624ZM80.12813 25.315624Q80.12813 27.425 80.62813 28.128124Q81.12813 28.83125 81.84688 28.83125Q82.58125 28.83125 83.06563 28.128124Q83.56563 27.425 83.56563 25.315624Q83.56563 23.190624 83.06563 22.503124Q82.58125 21.8 81.83125 21.8Q81.1125 21.8 80.675 22.409374Q80.12813 23.190624 80.12813 25.315624ZM86.05 25.315624Q86.05 23.784374 86.3625 22.8625Q86.675 21.925 87.28438 21.425Q87.90938 20.925 88.84688 20.925Q89.53438 20.925 90.05 21.20625Q90.58125 21.4875 90.925 22.01875Q91.26875 22.534374 91.45625 23.284374Q91.64375 24.034374 91.64375 25.315624Q91.64375 26.83125 91.33125 27.753124Q91.03438 28.675 90.40938 29.190624Q89.8 29.690624 88.84688 29.690624Q87.6125 29.690624 86.89375 28.8Q86.05 27.7375 86.05 25.315624ZM87.12813 25.315624Q87.12813 27.425 87.62813 28.128124Q88.12813 28.83125 88.84688 28.83125Q89.58125 28.83125 90.06563 28.128124Q90.56563 27.425 90.56563 25.315624Q90.56563 23.190624 90.06563 22.503124Q89.58125 21.8 88.83125 21.8Q88.1125 21.8 87.675 22.409374Q87.12813 23.190624 87.12813 25.315624Z" fill-rule="nonzero"/><path fill="#000000" d="M155.22575 349.45L155.22575 348.52814Q154.49138 349.59064 153.24138 349.59064Q152.6945 349.59064 152.21013 349.3875Q151.74138 349.16876 151.507 348.85626Q151.27263 348.52814 151.17888 348.0594Q151.11638 347.7625 151.11638 347.075L151.11638 343.23126L152.17888 343.23126L152.17888 346.6844Q152.17888 347.4969 152.24138 347.79376Q152.33513 348.2 152.64763 348.45Q152.97575 348.6844 153.46013 348.6844Q153.92888 348.6844 154.33513 348.45Q154.757 348.2 154.92888 347.77814Q155.11638 347.35626 155.11638 346.5594L155.11638 343.23126L156.16325 343.23126L156.16325 349.45L155.22575 349.45ZM158.14763 349.45L158.14763 343.23126L159.08513 343.23126L159.08513 344.10626Q159.77263 343.09064 161.0695 343.09064Q161.632 343.09064 162.10075 343.29376Q162.58513 343.4969 162.8195 343.825Q163.05388 344.15314 163.14763 344.59064Q163.1945 344.8875 163.1945 345.6219L163.1945 349.45L162.14763 349.45L162.14763 345.66876Q162.14763 345.0125 162.02263 344.7Q161.89763 344.3875 161.58513 344.2Q161.27263 343.9969 160.85075 343.9969Q160.17888 343.9969 159.67888 344.4344Q159.1945 344.85626 159.1945 346.04376L159.1945 349.45L158.14763 349.45ZM165.14763 349.45L165.14763 343.23126L166.08513 343.23126L166.08513 344.10626Q166.382 343.6375 166.86638 343.3719Q167.35075 343.09064 167.97575 343.09064Q168.66325 343.09064 169.10075 343.3719Q169.55388 343.65314 169.72575 344.16876Q170.47575 343.09064 171.64763 343.09064Q172.58513 343.09064 173.0695 343.60626Q173.5695 344.10626 173.5695 345.1844L173.5695 349.45L172.52263 349.45L172.52263 345.52814Q172.52263 344.90314 172.41325 344.6219Q172.3195 344.34064 172.05388 344.16876Q171.78825 343.9969 171.41325 343.9969Q170.757 343.9969 170.3195 344.4344Q169.89763 344.8719 169.89763 345.84064L169.89763 349.45L168.83513 349.45L168.83513 345.40314Q168.83513 344.7 168.5695 344.35626Q168.3195 343.9969 167.74138 343.9969Q167.28825 343.9969 166.91325 344.23126Q166.53825 344.46564 166.36638 344.91876Q166.1945 345.3719 166.1945 346.21564L166.1945 349.45L165.14763 349.45ZM174.757 346.34064Q174.757 344.60626 175.71013 343.77814Q176.507 343.09064 177.66325 343.09064Q178.9445 343.09064 179.757 343.9344Q180.58513 344.7625 180.58513 346.2469Q180.58513 347.45 180.22575 348.1375Q179.86638 348.825 179.16325 349.21564Q178.47575 349.59064 177.66325 349.59064Q176.36638 349.59064 175.55388 348.7625Q174.757 347.91876 174.757 346.34064ZM175.83513 346.34064Q175.83513 347.52814 176.35075 348.1219Q176.882 348.71564 177.66325 348.71564Q178.46013 348.71564 178.97575 348.1219Q179.49138 347.52814 179.49138 346.3094Q179.49138 345.15314 178.96013 344.5594Q178.4445 343.96564 177.66325 343.96564Q176.882 343.96564 176.35075 344.5594Q175.83513 345.1375 175.83513 346.34064ZM186.17888 349.45L186.17888 348.66876Q185.58513 349.59064 184.4445 349.59064Q183.6945 349.59064 183.0695 349.1844Q182.4445 348.7625 182.10075 348.02814Q181.757 347.29376 181.757 346.34064Q181.757 345.41876 182.0695 344.65314Q182.382 343.8875 183.007 343.4969Q183.632 343.09064 184.39763 343.09064Q184.96013 343.09064 185.39763 343.325Q185.83513 343.5594 186.11638 343.9344L186.11638 340.85626L187.16325 340.85626L187.16325 349.45L186.17888 349.45ZM182.85075 346.34064Q182.85075 347.54376 183.35075 348.1375Q183.85075 348.71564 184.53825 348.71564Q185.22575 348.71564 185.71013 348.15314Q186.1945 347.59064 186.1945 346.4344Q186.1945 345.15314 185.6945 344.5594Q185.21013 343.96564 184.49138 343.96564Q183.78825 343.96564 183.3195 344.54376Q182.85075 345.10626 182.85075 346.34064ZM189.14763 342.075L189.14763 340.85626L190.21013 340.85626L190.21013 342.075L189.14763 342.075ZM189.14763 349.45L189.14763 343.23126L190.21013 343.23126L190.21013 349.45L189.14763 349.45ZM192.39763 349.45L192.39763 344.04376L191.46013 344.04376L191.46013 343.23126L192.39763 343.23126L192.39763 342.5594Q192.39763 341.9344 192.507 341.6375Q192.66325 341.21564 193.03825 340.96564Q193.42888 340.71564 194.11638 340.71564Q194.5695 340.71564 195.10075 340.825L194.9445 341.73126Q194.61638 341.6844 194.3195 341.6844Q193.83513 341.6844 193.632 341.8875Q193.4445 342.09064 193.4445 342.65314L193.4445 343.23126L194.66325 343.23126L194.66325 344.04376L193.4445 344.04376L193.4445 349.45L192.39763 349.45ZM195.14763 342.075L195.14763 340.85626L196.21013 340.85626L196.21013 342.075L195.14763 342.075ZM195.14763 349.45L195.14763 343.23126L196.21013 343.23126L196.21013 349.45L195.14763 349.45ZM202.39763 347.45L203.49138 347.575Q203.24138 348.52814 202.53825 349.0594Q201.83513 349.59064 200.757 349.59064Q199.39763 349.59064 198.58513 348.7469Q197.78825 347.90314 197.78825 346.3875Q197.78825 344.825 198.60075 343.96564Q199.41325 343.09064 200.6945 343.09064Q201.9445 343.09064 202.72575 343.9344Q203.52263 344.77814 203.52263 346.325Q203.52263 346.41876 203.52263 346.60626L198.882 346.60626Q198.9445 347.6375 199.46013 348.1844Q199.97575 348.71564 200.757 348.71564Q201.33513 348.71564 201.74138 348.41876Q202.16325 348.10626 202.39763 347.45ZM198.9445 345.7469L202.41325 345.7469Q202.35075 344.95 202.02263 344.5594Q201.507 343.95 200.71013 343.95Q199.97575 343.95 199.47575 344.4344Q198.99138 344.91876 198.9445 345.7469ZM209.17888 349.45L209.17888 348.66876Q208.58513 349.59064 207.4445 349.59064Q206.6945 349.59064 206.0695 349.1844Q205.4445 348.7625 205.10075 348.02814Q204.757 347.29376 204.757 346.34064Q204.757 345.41876 205.0695 344.65314Q205.382 343.8875 206.007 343.4969Q206.632 343.09064 207.39763 343.09064Q207.96013 343.09064 208.39763 343.325Q208.83513 343.5594 209.11638 343.9344L209.11638 340.85626L210.16325 340.85626L210.16325 349.45L209.17888 349.45ZM205.85075 346.34064Q205.85075 347.54376 206.35075 348.1375Q206.85075 348.71564 207.53825 348.71564Q208.22575 348.71564 208.71013 348.15314Q209.1945 347.59064 209.1945 346.4344Q209.1945 345.15314 208.6945 344.5594Q208.21013 343.96564 207.49138 343.96564Q206.78825 343.96564 206.3195 344.54376Q205.85075 345.10626 205.85075 346.34064ZM215.14763 342.075L215.14763 340.85626L216.21013 340.85626L216.21013 342.075L215.14763 342.075ZM215.14763 349.45L215.14763 343.23126L216.21013 343.23126L216.21013 349.45L215.14763 349.45ZM218.14763 349.45L218.14763 343.23126L219.08513 343.23126L219.08513 344.10626Q219.77263 343.09064 221.0695 343.09064Q221.632 343.09064 222.10075 343.29376Q222.58513 343.4969 222.8195 343.825Q223.05388 344.15314 223.14763 344.59064Q223.1945 344.8875 223.1945 345.6219L223.1945 349.45L222.14763 349.45L222.14763 345.66876Q222.14763 345.0125 222.02263 344.7Q221.89763 344.3875 221.58513 344.2Q221.27263 343.9969 220.85075 343.9969Q220.17888 343.9969 219.67888 344.4344Q219.1945 344.85626 219.1945 346.04376L219.1945 349.45L218.14763 349.45ZM225.14763 351.84064L225.14763 343.23126L226.10075 343.23126L226.10075 344.02814Q226.4445 343.5594 226.86638 343.325Q227.30388 343.09064 227.91325 343.09064Q228.71013 343.09064 229.3195 343.4969Q229.92888 343.90314 230.22575 344.65314Q230.53825 345.40314 230.53825 346.29376Q230.53825 347.2469 230.1945 348.0125Q229.86638 348.77814 229.21013 349.1844Q228.55388 349.59064 227.83513 349.59064Q227.30388 349.59064 226.882 349.3719Q226.46013 349.1375 226.1945 348.8094L226.1945 351.84064L225.14763 351.84064ZM226.10075 346.3719Q226.10075 347.575 226.58513 348.15314Q227.0695 348.71564 227.757 348.71564Q228.46013 348.71564 228.96013 348.1219Q229.46013 347.52814 229.46013 346.27814Q229.46013 345.09064 228.97575 344.5125Q228.49138 343.91876 227.80388 343.91876Q227.132 343.91876 226.61638 344.54376Q226.10075 345.16876 226.10075 346.3719ZM236.22575 349.45L236.22575 348.52814Q235.49138 349.59064 234.24138 349.59064Q233.6945 349.59064 233.21013 349.3875Q232.74138 349.16876 232.507 348.85626Q232.27263 348.52814 232.17888 348.0594Q232.11638 347.7625 232.11638 347.075L232.11638 343.23126L233.17888 343.23126L233.17888 346.6844Q233.17888 347.4969 233.24138 347.79376Q233.33513 348.2 233.64763 348.45Q233.97575 348.6844 234.46013 348.6844Q234.92888 348.6844 235.33513 348.45Q235.757 348.2 235.92888 347.77814Q236.11638 347.35626 236.11638 346.5594L236.11638 343.23126L237.16325 343.23126L237.16325 349.45L236.22575 349.45ZM241.4445 348.5125L241.60075 349.4344Q241.14763 349.52814 240.80388 349.52814Q240.22575 349.52814 239.91325 349.35626Q239.60075 349.16876 239.46013 348.8719Q239.33513 348.575 239.33513 347.6219L239.33513 344.04376L238.5695 344.04376L238.5695 343.23126L239.33513 343.23126L239.33513 341.6844L240.382 341.0594L240.382 343.23126L241.4445 343.23126L241.4445 344.04376L240.382 344.04376L240.382 347.6844Q240.382 348.1375 240.42888 348.2625Q240.49138 348.3875 240.61638 348.46564Q240.74138 348.54376 240.97575 348.54376Q241.16325 348.54376 241.4445 348.5125Z" fill-rule="nonzero"/><path fill="#000000" d="M311.375 346.8719L311.375 345.8094L314.625 345.8094L314.625 346.8719L311.375 346.8719ZM315.375 346.8719L315.375 345.8094L318.625 345.8094L318.625 346.8719L315.375 346.8719ZM320.76562 349.45L319.78125 349.45L319.78125 340.85626L320.84375 340.85626L320.84375 343.91876Q321.51562 343.09064 322.54688 343.09064Q323.125 343.09064 323.625 343.325Q324.14062 343.54376 324.46875 343.96564Q324.8125 344.3875 325.0 344.98126Q325.1875 345.575 325.1875 346.2469Q325.1875 347.84064 324.39062 348.71564Q323.59375 349.59064 322.5 349.59064Q321.39062 349.59064 320.76562 348.66876L320.76562 349.45ZM320.75 346.29376Q320.75 347.40314 321.0625 347.90314Q321.5625 348.71564 322.40625 348.71564Q323.09375 348.71564 323.59375 348.1219Q324.10938 347.52814 324.10938 346.325Q324.10938 345.10626 323.625 344.52814Q323.14062 343.95 322.45312 343.95Q321.76562 343.95 321.25 344.5594Q320.75 345.15314 320.75 346.29376ZM326.75 351.84064L326.625 350.85626Q326.96875 350.95 327.23438 350.95Q327.57812 350.95 327.78125 350.825Q328.0 350.71564 328.14062 350.5125Q328.23438 350.34064 328.46875 349.71564Q328.48438 349.6375 328.5625 349.46564L326.1875 343.23126L327.32812 343.23126L328.625 346.825Q328.875 347.5125 329.07812 348.27814Q329.26562 347.54376 329.51562 346.85626L330.84375 343.23126L331.89062 343.23126L329.53125 349.5594Q329.14062 350.575 328.9375 350.96564Q328.65625 351.4969 328.28125 351.73126Q327.92188 351.98126 327.42188 351.98126Q327.125 351.98126 326.75 351.84064ZM332.375 347.59064L333.40625 347.4344Q333.5 348.0594 333.89062 348.3875Q334.29688 348.71564 335.03125 348.71564Q335.75 348.71564 336.09375 348.4344Q336.45312 348.1375 336.45312 347.73126Q336.45312 347.3719 336.14062 347.16876Q335.92188 347.02814 335.0625 346.8094Q333.90625 346.5125 333.45312 346.3094Q333.01562 346.09064 332.78125 345.71564Q332.54688 345.34064 332.54688 344.8719Q332.54688 344.46564 332.73438 344.10626Q332.92188 343.7469 333.25 343.5125Q333.5 343.34064 333.92188 343.21564Q334.34375 343.09064 334.84375 343.09064Q335.5625 343.09064 336.10938 343.3094Q336.67188 343.5125 336.9375 343.8719Q337.20312 344.23126 337.29688 344.825L336.26562 344.96564Q336.20312 344.4969 335.85938 344.23126Q335.53125 343.95 334.90625 343.95Q334.1875 343.95 333.875 344.2Q333.5625 344.4344 333.5625 344.7625Q333.5625 344.96564 333.6875 345.1219Q333.82812 345.29376 334.09375 345.40314Q334.25 345.46564 335.03125 345.66876Q336.15625 345.98126 336.59375 346.16876Q337.03125 346.35626 337.28125 346.71564Q337.53125 347.075 337.53125 347.6219Q337.53125 348.15314 337.21875 348.6219Q336.92188 349.075 336.34375 349.34064Q335.76562 349.59064 335.03125 349.59064Q333.8125 349.59064 333.17188 349.09064Q332.54688 348.575 332.375 347.59064ZM338.75 351.84064L338.625 350.85626Q338.96875 350.95 339.23438 350.95Q339.57812 350.95 339.78125 350.825Q340.0 350.71564 340.14062 350.5125Q340.23438 350.34064 340.46875 349.71564Q340.48438 349.6375 340.5625 349.46564L338.1875 343.23126L339.32812 343.23126L340.625 346.825Q340.875 347.5125 341.07812 348.27814Q341.26562 347.54376 341.51562 346.85626L342.84375 343.23126L343.89062 343.23126L341.53125 349.5594Q341.14062 350.575 340.9375 350.96564Q340.65625 351.4969 340.28125 351.73126Q339.92188 351.98126 339.42188 351.98126Q339.125 351.98126 338.75 351.84064ZM344.79688 349.45L344.79688 343.23126L345.73438 343.23126L345.73438 344.10626Q346.42188 343.09064 347.71875 343.09064Q348.28125 343.09064 348.75 343.29376Q349.23438 343.4969 349.46875 343.825Q349.70312 344.15314 349.79688 344.59064Q349.84375 344.8875 349.84375 345.6219L349.84375 349.45L348.79688 349.45L348.79688 345.66876Q348.79688 345.0125 348.67188 344.7Q348.54688 344.3875 348.23438 344.2Q347.92188 343.9969 347.5 343.9969Q346.82812 343.9969 346.32812 344.4344Q345.84375 344.85626 345.84375 346.04376L345.84375 349.45L344.79688 349.45ZM355.85938 347.16876L356.89062 347.3094Q356.71875 348.3719 356.01562 348.98126Q355.3125 349.59064 354.29688 349.59064Q353.01562 349.59064 352.23438 348.7625Q351.46875 347.91876 351.46875 346.35626Q351.46875 345.35626 351.79688 344.60626Q352.14062 343.84064 352.8125 343.46564Q353.5 343.09064 354.3125 343.09064Q355.3125 343.09064 355.95312 343.60626Q356.60938 344.10626 356.79688 345.0594L355.76562 345.21564Q355.625 344.59064 355.25 344.27814Q354.875 343.95 354.34375 343.95Q353.54688 343.95 353.04688 344.52814Q352.54688 345.09064 352.54688 346.325Q352.54688 347.59064 353.03125 348.15314Q353.51562 348.71564 354.28125 348.71564Q354.90625 348.71564 355.3125 348.34064Q355.73438 347.96564 355.85938 347.16876ZM357.79688 342.075L357.79688 340.85626L358.85938 340.85626L358.85938 342.075L357.79688 342.075ZM357.79688 349.45L357.79688 343.23126L358.85938 343.23126L358.85938 349.45L357.79688 349.45ZM361.04688 349.45L361.04688 344.04376L360.10938 344.04376L360.10938 343.23126L361.04688 343.23126L361.04688 342.5594Q361.04688 341.9344 361.15625 341.6375Q361.3125 341.21564 361.6875 340.96564Q362.07812 340.71564 362.76562 340.71564Q363.21875 340.71564 363.75 340.825L363.59375 341.73126Q363.26562 341.6844 362.96875 341.6844Q362.48438 341.6844 362.28125 341.8875Q362.09375 342.09064 362.09375 342.65314L362.09375 343.23126L363.3125 343.23126L363.3125 344.04376L362.09375 344.04376L362.09375 349.45L361.04688 349.45ZM363.75 351.84064L363.625 350.85626Q363.96875 350.95 364.23438 350.95Q364.57812 350.95 364.78125 350.825Q365.0 350.71564 365.14062 350.5125Q365.23438 350.34064 365.46875 349.71564Q365.48438 349.6375 365.5625 349.46564L363.1875 343.23126L364.32812 343.23126L365.625 346.825Q365.875 347.5125 366.07812 348.27814Q366.26562 347.54376 366.51562 346.85626L367.84375 343.23126L368.89062 343.23126L366.53125 349.5594Q366.14062 350.575 365.9375 350.96564Q365.65625 351.4969 365.28125 351.73126Q364.92188 351.98126 364.42188 351.98126Q364.125 351.98126 363.75 351.84064Z" fill-rule="nonzero"/><path fill="#000000" d="M447.52426 346.8719L447.52426 345.8094L450.77426 345.8094L450.77426 346.8719L447.52426 346.8719ZM451.7274 345.2625Q451.7274 343.1219 452.868 341.91876Q454.02426 340.7 455.83676 340.7Q457.0399 340.7 457.993 341.27814Q458.94614 341.84064 459.44614 342.85626Q459.94614 343.8719 459.94614 345.16876Q459.94614 346.46564 459.4149 347.4969Q458.88364 348.52814 457.9149 349.0594Q456.96176 349.59064 455.83676 349.59064Q454.618 349.59064 453.6649 349.0125Q452.71176 348.41876 452.21176 347.41876Q451.7274 346.40314 451.7274 345.2625ZM452.89926 345.27814Q452.89926 346.84064 453.7274 347.73126Q454.57114 348.6219 455.83676 348.6219Q457.118 348.6219 457.94614 347.73126Q458.77426 346.825 458.77426 345.15314Q458.77426 344.10626 458.4149 343.325Q458.07114 342.54376 457.38364 342.1219Q456.69614 341.6844 455.8524 341.6844Q454.64926 341.6844 453.77426 342.5125Q452.89926 343.34064 452.89926 345.27814ZM463.52426 346.8719L463.52426 345.8094L466.77426 345.8094L466.77426 346.8719L463.52426 346.8719ZM467.52426 346.8719L467.52426 345.8094L470.77426 345.8094L470.77426 346.8719L467.52426 346.8719ZM472.9149 349.45L471.9305 349.45L471.9305 340.85626L472.993 340.85626L472.993 343.91876Q473.6649 343.09064 474.69614 343.09064Q475.27426 343.09064 475.77426 343.325Q476.2899 343.54376 476.618 343.96564Q476.96176 344.3875 477.14926 344.98126Q477.33676 345.575 477.33676 346.2469Q477.33676 347.84064 476.5399 348.71564Q475.743 349.59064 474.64926 349.59064Q473.5399 349.59064 472.9149 348.66876L472.9149 349.45ZM472.89926 346.29376Q472.89926 347.40314 473.21176 347.90314Q473.71176 348.71564 474.5555 348.71564Q475.243 348.71564 475.743 348.1219Q476.25864 347.52814 476.25864 346.325Q476.25864 345.10626 475.77426 344.52814Q475.2899 343.95 474.6024 343.95Q473.9149 343.95 473.39926 344.5594Q472.89926 345.15314 472.89926 346.29376ZM478.89926 351.84064L478.77426 350.85626Q479.118 350.95 479.38364 350.95Q479.7274 350.95 479.9305 350.825Q480.14926 350.71564 480.2899 350.5125Q480.38364 350.34064 480.618 349.71564Q480.63364 349.6375 480.71176 349.46564L478.33676 343.23126L479.4774 343.23126L480.77426 346.825Q481.02426 347.5125 481.2274 348.27814Q481.4149 347.54376 481.6649 346.85626L482.993 343.23126L484.0399 343.23126L481.6805 349.5594Q481.2899 350.575 481.08676 350.96564Q480.8055 351.4969 480.4305 351.73126Q480.07114 351.98126 479.57114 351.98126Q479.27426 351.98126 478.89926 351.84064ZM484.52426 347.59064L485.5555 347.4344Q485.64926 348.0594 486.0399 348.3875Q486.44614 348.71564 487.1805 348.71564Q487.89926 348.71564 488.243 348.4344Q488.6024 348.1375 488.6024 347.73126Q488.6024 347.3719 488.2899 347.16876Q488.07114 347.02814 487.21176 346.8094Q486.0555 346.5125 485.6024 346.3094Q485.1649 346.09064 484.9305 345.71564Q484.69614 345.34064 484.69614 344.8719Q484.69614 344.46564 484.88364 344.10626Q485.07114 343.7469 485.39926 343.5125Q485.64926 343.34064 486.07114 343.21564Q486.493 343.09064 486.993 343.09064Q487.71176 343.09064 488.25864 343.3094Q488.82114 343.5125 489.08676 343.8719Q489.3524 344.23126 489.44614 344.825L488.4149 344.96564Q488.3524 344.4969 488.00864 344.23126Q487.6805 343.95 487.0555 343.95Q486.33676 343.95 486.02426 344.2Q485.71176 344.4344 485.71176 344.7625Q485.71176 344.96564 485.83676 345.1219Q485.9774 345.29376 486.243 345.40314Q486.39926 345.46564 487.1805 345.66876Q488.3055 345.98126 488.743 346.16876Q489.1805 346.35626 489.4305 346.71564Q489.6805 347.075 489.6805 347.6219Q489.6805 348.15314 489.368 348.6219Q489.07114 349.075 488.493 349.34064Q487.9149 349.59064 487.1805 349.59064Q485.96176 349.59064 485.32114 349.09064Q484.69614 348.575 484.52426 347.59064ZM490.89926 351.84064L490.77426 350.85626Q491.118 350.95 491.38364 350.95Q491.7274 350.95 491.9305 350.825Q492.14926 350.71564 492.2899 350.5125Q492.38364 350.34064 492.618 349.71564Q492.63364 349.6375 492.71176 349.46564L490.33676 343.23126L491.4774 343.23126L492.77426 346.825Q493.02426 347.5125 493.2274 348.27814Q493.4149 347.54376 493.6649 346.85626L494.993 343.23126L496.0399 343.23126L493.6805 349.5594Q493.2899 350.575 493.08676 350.96564Q492.8055 351.4969 492.4305 351.73126Q492.07114 351.98126 491.57114 351.98126Q491.27426 351.98126 490.89926 351.84064ZM496.94614 349.45L496.94614 343.23126L497.88364 343.23126L497.88364 344.10626Q498.57114 343.09064 499.868 343.09064Q500.4305 343.09064 500.89926 343.29376Q501.38364 343.4969 501.618 343.825Q501.8524 344.15314 501.94614 344.59064Q501.993 344.8875 501.993 345.6219L501.993 349.45L500.94614 349.45L500.94614 345.66876Q500.94614 345.0125 500.82114 344.7Q500.69614 344.3875 500.38364 344.2Q500.07114 343.9969 499.64926 343.9969Q498.9774 343.9969 498.4774 344.4344Q497.993 344.85626 497.993 346.04376L497.993 349.45L496.94614 349.45ZM508.00864 347.16876L509.0399 347.3094Q508.868 348.3719 508.1649 348.98126Q507.46176 349.59064 506.44614 349.59064Q505.1649 349.59064 504.38364 348.7625Q503.618 347.91876 503.618 346.35626Q503.618 345.35626 503.94614 344.60626Q504.2899 343.84064 504.96176 343.46564Q505.64926 343.09064 506.46176 343.09064Q507.46176 343.09064 508.1024 343.60626Q508.75864 344.10626 508.94614 345.0594L507.9149 345.21564Q507.77426 344.59064 507.39926 344.27814Q507.02426 343.95 506.493 343.95Q505.69614 343.95 505.19614 344.52814Q504.69614 345.09064 504.69614 346.325Q504.69614 347.59064 505.1805 348.15314Q505.6649 348.71564 506.4305 348.71564Q507.0555 348.71564 507.46176 348.34064Q507.88364 347.96564 508.00864 347.16876ZM509.94614 342.075L509.94614 340.85626L511.00864 340.85626L511.00864 342.075L509.94614 342.075ZM509.94614 349.45L509.94614 343.23126L511.00864 343.23126L511.00864 349.45L509.94614 349.45ZM513.19617 349.45L513.19617 344.04376L512.25867 344.04376L512.25867 343.23126L513.19617 343.23126L513.19617 342.5594Q513.19617 341.9344 513.30554 341.6375Q513.4618 341.21564 513.8368 340.96564Q514.2274 340.71564 514.9149 340.71564Q515.36804 340.71564 515.8993 340.825L515.74304 341.73126Q515.4149 341.6844 515.11804 341.6844Q514.63367 341.6844 514.43054 341.8875Q514.24304 342.09064 514.24304 342.65314L514.24304 343.23126L515.4618 343.23126L515.4618 344.04376L514.24304 344.04376L514.24304 349.45L513.19617 349.45ZM515.8993 351.84064L515.7743 350.85626Q516.11804 350.95 516.38367 350.95Q516.7274 350.95 516.93054 350.825Q517.1493 350.71564 517.2899 350.5125Q517.38367 350.34064 517.61804 349.71564Q517.63367 349.6375 517.7118 349.46564L515.3368 343.23126L516.4774 343.23126L517.7743 346.825Q518.0243 347.5125 518.2274 348.27814Q518.4149 347.54376 518.6649 346.85626L519.99304 343.23126L521.0399 343.23126L518.68054 349.5594Q518.2899 350.575 518.0868 350.96564Q517.80554 351.4969 517.43054 351.73126Q517.07117 351.98126 516.57117 351.98126Q516.2743 351.98126 515.8993 351.84064Z" fill-rule="nonzero"/></svg>