<?xml version="1.0" encoding="UTF-8" standalone="no"?>
<svg
   xmlns:dc="http://purl.org/dc/elements/1.1/"
   xmlns:cc="http://creativecommons.org/ns#"
   xmlns:rdf="http://www.w3.org/1999/02/22-rdf-syntax-ns#"
   xmlns:svg="http://www.w3.org/2000/svg"
   xmlns="http://www.w3.org/2000/svg"
   xmlns:sodipodi="http://sodipodi.sourceforge.net/DTD/sodipodi-0.dtd"
   xmlns:inkscape="http://www.inkscape.org/namespaces/inkscape"
   version="1.1"
   viewBox="0.0 0.0 600.0 371.0"
   fill="none"
   stroke="none"
   stroke-linecap="square"
   stroke-miterlimit="10"
   width="600"
   height="371"
   id="svg43"
   sodipodi:docname="byopt.svg"
   inkscape:version="0.92.3 (2405546, 2018-03-11)">
  <metadata
     id="metadata49">
    <rdf:RDF>
      <cc:Work
         rdf:about="">
        <dc:format>image/svg+xml</dc:format>
        <dc:type
           rdf:resource="http://purl.org/dc/dcmitype/StillImage" />
      </cc:Work>
    </rdf:RDF>
  </metadata>
  <defs
     id="defs47" />
  <sodipodi:namedview
     pagecolor="#ffffff"
     bordercolor="#666666"
     borderopacity="1"
     objecttolerance="10"
     gridtolerance="10"
     guidetolerance="10"
     inkscape:pageopacity="0"
     inkscape:pageshadow="2"
     inkscape:window-width="2560"
     inkscape:window-height="1379"
     id="namedview45"
     showgrid="false"
     inkscape:zoom="2.2"
     inkscape:cx="306.66667"
     inkscape:cy="185.5"
     inkscape:window-x="0"
     inkscape:window-y="0"
     inkscape:window-maximized="1"
     inkscape:current-layer="svg43" />
  <path
     d="M 0,0 H 600 V 371 H 0 Z"
     id="path2"
     inkscape:connector-curvature="0"
     style="fill:#ffffff;fill-rule:nonzero" />
  <path
     stroke="#333333"
     stroke-width="1.0"
     stroke-linecap="butt"
     d="M98.5 332.5L581.5 332.5"
     fill-rule="nonzero"
     id="path4" />
  <path
     stroke="#cccccc"
     stroke-width="1.0"
     stroke-linecap="butt"
     d="M98.5 230.5L581.5 230.5"
     fill-rule="nonzero"
     id="path6" />
  <path
     stroke="#cccccc"
     stroke-width="1.0"
     stroke-linecap="butt"
     d="M98.5 127.5L581.5 127.5"
     fill-rule="nonzero"
     id="path8" />
  <path
     stroke="#cccccc"
     stroke-width="1.0"
     stroke-linecap="butt"
     d="M98.5 25.5L581.5 25.5"
     fill-rule="nonzero"
     id="path10" />
  <clipPath
     id="id_0">
    <path
       d="M98.55 25.55L581.45 25.55L581.45 332.45L98.55 332.45L98.55 25.55Z"
       clip-rule="nonzero"
       id="path12" />
  </clipPath>
  <path
     stroke="#000000"
     stroke-width="0.0"
     stroke-linecap="butt"
     stroke-opacity="0.0"
     clip-path="url(#id_0)"
     d="M243.0 332.0L149.0 332.0L149.0 301.0C149.0 299.89542 149.89543 299.0 151.0 299.0L241.0 299.0C242.10457 299.0 243.0 299.89542 243.0 301.0Z"
     fill-rule="nonzero"
     id="path15" />
  <path
     fill="#4285f4"
     clip-path="url(#id_0)"
     d="M243.0 332.0L149.0 332.0L149.0 301.0C149.0 299.89542 149.89543 299.0 151.0 299.0L241.0 299.0C242.10457 299.0 243.0 299.89542 243.0 301.0Z"
     fill-rule="nonzero"
     id="path17" />
  <path
     stroke="#000000"
     stroke-width="0.0"
     stroke-linecap="butt"
     stroke-opacity="0.0"
     clip-path="url(#id_0)"
     d="M387.0 332.0L293.0 332.0L293.0 78.0C293.0 76.89543 293.89542 76.0 295.0 76.0L385.0 76.0C386.10458 76.0 387.0 76.89543 387.0 78.0Z"
     fill-rule="nonzero"
     id="path19" />
  <path
     fill="#4285f4"
     clip-path="url(#id_0)"
     d="M387.0 332.0L293.0 332.0L293.0 78.0C293.0 76.89543 293.89542 76.0 295.0 76.0L385.0 76.0C386.10458 76.0 387.0 76.89543 387.0 78.0Z"
     fill-rule="nonzero"
     id="path21" />
  <path
     stroke="#000000"
     stroke-width="0.0"
     stroke-linecap="butt"
     stroke-opacity="0.0"
     clip-path="url(#id_0)"
     d="M531.0 332.0L437.0 332.0L437.0 286.0C437.0 284.89542 437.89542 284.0 439.0 284.0L529.0 284.0C530.10455 284.0 531.0 284.89542 531.0 286.0Z"
     fill-rule="nonzero"
     id="path23" />
  <path
     fill="#4285f4"
     clip-path="url(#id_0)"
     d="M531.0 332.0L437.0 332.0L437.0 286.0C437.0 284.89542 437.89542 284.0 439.0 284.0L529.0 284.0C530.10455 284.0 531.0 284.89542 531.0 286.0Z"
     fill-rule="nonzero"
     id="path25" />
  <path
     fill="#000000"
     d="M29.550013 198.23438L29.550013 199.21875L20.956263 199.21875L20.956263 198.15625L24.018763 198.15625Q23.190638 197.48438 23.190638 196.45312Q23.190638 195.875 23.425013 195.375Q23.643763 194.85938 24.065638 194.53125Q24.487513 194.1875 25.081263 194.0Q25.675013 193.8125 26.346888 193.8125Q27.940638 193.8125 28.815638 194.60938Q29.690638 195.40625 29.690638 196.5Q29.690638 197.60938 28.768763 198.23438L29.550013 198.23438ZM26.393763 198.25Q27.503138 198.25 28.003138 197.9375Q28.815638 197.4375 28.815638 196.59375Q28.815638 195.90625 28.221888 195.40625Q27.628138 194.89062 26.425013 194.89062Q25.206263 194.89062 24.628138 195.375Q24.050013 195.85938 24.050013 196.54688Q24.050013 197.23438 24.659388 197.75Q25.253138 198.25 26.393763 198.25ZM31.940638 192.25L30.956263 192.375Q31.050013 192.03125 31.050013 191.76562Q31.050013 191.42188 30.925013 191.21875Q30.815638 191.0 30.612513 190.85938Q30.440638 190.76562 29.815638 190.53125Q29.737513 190.51562 29.565638 190.4375L23.331263 192.8125L23.331263 191.67188L26.925013 190.375Q27.612513 190.125 28.378138 189.92188Q27.643763 189.73438 26.956263 189.48438L23.331263 188.15625L23.331263 187.10938L29.659388 189.46875Q30.675013 189.85938 31.065638 190.0625Q31.596888 190.34375 31.831263 190.71875Q32.08126 191.07812 32.08126 191.57812Q32.08126 191.875 31.940638 192.25ZM28.612513 183.90625L29.534388 183.75Q29.628138 184.20312 29.628138 184.54688Q29.628138 185.125 29.456263 185.4375Q29.268763 185.75 28.971888 185.89062Q28.675013 186.01562 27.721888 186.01562L24.143763 186.01562L24.143763 186.78125L23.331263 186.78125L23.331263 186.01562L21.784388 186.01562L21.159388 184.96875L23.331263 184.96875L23.331263 183.90625L24.143763 183.90625L24.143763 184.96875L27.784388 184.96875Q28.237513 184.96875 28.362513 184.92188Q28.487513 184.85938 28.565638 184.73438Q28.643763 184.60938 28.643763 184.375Q28.643763 184.1875 28.612513 183.90625ZM27.550013 178.95312L27.675013 177.85938Q28.628138 178.10938 29.159388 178.8125Q29.690638 179.51562 29.690638 180.59375Q29.690638 181.95312 28.846888 182.76562Q28.003138 183.5625 26.487513 183.5625Q24.925013 183.5625 24.065638 182.75Q23.190638 181.9375 23.190638 180.65625Q23.190638 179.40625 24.034388 178.625Q24.878138 177.82812 26.425013 177.82812Q26.518763 177.82812 26.706263 177.82812L26.706263 182.46875Q27.737513 182.40625 28.284388 181.89062Q28.815638 181.375 28.815638 180.59375Q28.815638 180.01562 28.518763 179.60938Q28.206263 179.1875 27.550013 178.95312ZM25.846888 182.40625L25.846888 178.9375Q25.050013 179.0 24.659388 179.32812Q24.050013 179.84375 24.050013 180.64062Q24.050013 181.375 24.534388 181.875Q25.018763 182.35938 25.846888 182.40625ZM27.690638 176.625L27.534388 175.59375Q28.159388 175.5 28.487513 175.10938Q28.815638 174.70312 28.815638 173.96875Q28.815638 173.25 28.534388 172.90625Q28.237513 172.54688 27.831263 172.54688Q27.471888 172.54688 27.268763 172.85938Q27.128138 173.07812 26.909388 173.9375Q26.612513 175.09375 26.409388 175.54688Q26.190638 175.98438 25.815638 176.21875Q25.440638 176.45312 24.971888 176.45312Q24.565638 176.45312 24.206263 176.26562Q23.846888 176.07812 23.612513 175.75Q23.440638 175.5 23.315638 175.07812Q23.190638 174.65625 23.190638 174.15625Q23.190638 173.4375 23.409388 172.89062Q23.612513 172.32812 23.971888 172.0625Q24.331263 171.79688 24.925013 171.70312L25.065638 172.73438Q24.596888 172.79688 24.331263 173.14062Q24.050013 173.46875 24.050013 174.09375Q24.050013 174.8125 24.300013 175.125Q24.534388 175.4375 24.862513 175.4375Q25.065638 175.4375 25.221888 175.3125Q25.393763 175.17188 25.503138 174.90625Q25.565638 174.75 25.768763 173.96875Q26.081263 172.84375 26.268763 172.40625Q26.456263 171.96875 26.815638 171.71875Q27.175013 171.46875 27.721888 171.46875Q28.253138 171.46875 28.721888 171.78125Q29.175013 172.07812 29.440638 172.65625Q29.690638 173.23438 29.690638 173.96875Q29.690638 175.1875 29.190638 175.82812Q28.675013 176.45312 27.690638 176.625Z"
     fill-rule="nonzero"
     id="path27" />
  <path
     fill="#000000"
     d="M86.05 332.21564Q86.05 330.6844 86.3625 329.7625Q86.675 328.825 87.28438 328.325Q87.90938 327.825 88.84688 327.825Q89.53438 327.825 90.05 328.10626Q90.58125 328.3875 90.925 328.91876Q91.26875 329.4344 91.45625 330.1844Q91.64375 330.9344 91.64375 332.21564Q91.64375 333.73126 91.33125 334.65314Q91.03438 335.575 90.40938 336.09064Q89.8 336.59064 88.84688 336.59064Q87.6125 336.59064 86.89375 335.7Q86.05 334.6375 86.05 332.21564ZM87.12813 332.21564Q87.12813 334.325 87.62813 335.02814Q88.12813 335.73126 88.84688 335.73126Q89.58125 335.73126 90.06563 335.02814Q90.56563 334.325 90.56563 332.21564Q90.56563 330.09064 90.06563 329.40314Q89.58125 328.7 88.83125 328.7Q88.1125 328.7 87.675 329.3094Q87.12813 330.09064 87.12813 332.21564Z"
     fill-rule="nonzero"
     id="path29" />
  <path
     fill="#000000"
     d="M58.05 231.9L59.159374 231.80624Q59.284374 232.61874 59.721874 233.025Q60.175 233.43124 60.815624 233.43124Q61.565624 233.43124 62.096874 232.85312Q62.628124 232.275 62.628124 231.3375Q62.628124 230.43124 62.1125 229.91562Q61.6125 229.38437 60.784374 229.38437Q60.284374 229.38437 59.8625 229.61874Q59.45625 229.85312 59.221874 230.2125L58.2375 230.0875L59.065624 225.68124L63.346874 225.68124L63.346874 226.68124L59.909374 226.68124L59.45625 228.99374Q60.221874 228.44687 61.065624 228.44687Q62.190624 228.44687 62.95625 229.22812Q63.7375 230.00937 63.7375 231.24374Q63.7375 232.4 63.065624 233.25937Q62.2375 234.29062 60.815624 234.29062Q59.64375 234.29062 58.89375 233.63437Q58.159374 232.97812 58.05 231.9ZM65.05 229.91562Q65.05 228.38437 65.3625 227.4625Q65.675 226.525 66.28438 226.025Q66.90938 225.525 67.84688 225.525Q68.53438 225.525 69.05 225.80624Q69.58125 226.0875 69.925 226.61874Q70.26875 227.13437 70.45625 227.88437Q70.64375 228.63437 70.64375 229.91562Q70.64375 231.43124 70.33125 232.35312Q70.03438 233.275 69.40938 233.79062Q68.8 234.29062 67.84688 234.29062Q66.6125 234.29062 65.89375 233.4Q65.05 232.3375 65.05 229.91562ZM66.12813 229.91562Q66.12813 232.025 66.62813 232.72812Q67.12813 233.43124 67.84688 233.43124Q68.58125 233.43124 69.06563 232.72812Q69.56563 232.025 69.56563 229.91562Q69.56563 227.79062 69.06563 227.10312Q68.58125 226.4 67.83125 226.4Q67.1125 226.4 66.675 227.00937Q66.12813 227.79062 66.12813 229.91562ZM72.05 229.91562Q72.05 228.38437 72.3625 227.4625Q72.675 226.525 73.28438 226.025Q73.90938 225.525 74.84688 225.525Q75.53438 225.525 76.05 225.80624Q76.58125 226.0875 76.925 226.61874Q77.26875 227.13437 77.45625 227.88437Q77.64375 228.63437 77.64375 229.91562Q77.64375 231.43124 77.33125 232.35312Q77.03438 233.275 76.40938 233.79062Q75.8 234.29062 74.84688 234.29062Q73.6125 234.29062 72.89375 233.4Q72.05 232.3375 72.05 229.91562ZM73.12813 229.91562Q73.12813 232.025 73.62813 232.72812Q74.12813 233.43124 74.84688 233.43124Q75.58125 233.43124 76.06563 232.72812Q76.56563 232.025 76.56563 229.91562Q76.56563 227.79062 76.06563 227.10312Q75.58125 226.4 74.83125 226.4Q74.1125 226.4 73.675 227.00937Q73.12813 227.79062 73.12813 229.91562ZM79.05 229.91562Q79.05 228.38437 79.3625 227.4625Q79.675 226.525 80.28438 226.025Q80.90938 225.525 81.84688 225.525Q82.53438 225.525 83.05 225.80624Q83.58125 226.0875 83.925 226.61874Q84.26875 227.13437 84.45625 227.88437Q84.64375 228.63437 84.64375 229.91562Q84.64375 231.43124 84.33125 232.35312Q84.03438 233.275 83.40938 233.79062Q82.8 234.29062 81.84688 234.29062Q80.6125 234.29062 79.89375 233.4Q79.05 232.3375 79.05 229.91562ZM80.12813 229.91562Q80.12813 232.025 80.62813 232.72812Q81.12813 233.43124 81.84688 233.43124Q82.58125 233.43124 83.06563 232.72812Q83.56563 232.025 83.56563 229.91562Q83.56563 227.79062 83.06563 227.10312Q82.58125 226.4 81.83125 226.4Q81.1125 226.4 80.675 227.00937Q80.12813 227.79062 80.12813 229.91562ZM86.05 229.91562Q86.05 228.38437 86.3625 227.4625Q86.675 226.525 87.28438 226.025Q87.90938 225.525 88.84688 225.525Q89.53438 225.525 90.05 225.80624Q90.58125 226.0875 90.925 226.61874Q91.26875 227.13437 91.45625 227.88437Q91.64375 228.63437 91.64375 229.91562Q91.64375 231.43124 91.33125 232.35312Q91.03438 233.275 90.40938 233.79062Q89.8 234.29062 88.84688 234.29062Q87.6125 234.29062 86.89375 233.4Q86.05 232.3375 86.05 229.91562ZM87.12813 229.91562Q87.12813 232.025 87.62813 232.72812Q88.12813 233.43124 88.84688 233.43124Q89.58125 233.43124 90.06563 232.72812Q90.56563 232.025 90.56563 229.91562Q90.56563 227.79062 90.06563 227.10312Q89.58125 226.4 88.83125 226.4Q88.1125 226.4 87.675 227.00937Q87.12813 227.79062 87.12813 229.91562Z"
     fill-rule="nonzero"
     id="path31" />
  <path
     fill="#000000"
     d="M55.01875 131.85L53.971874 131.85L53.971874 125.131256Q53.58125 125.49063 52.95625 125.86563Q52.346874 126.225006 51.8625 126.39688L51.8625 125.381256Q52.7375 124.95938 53.39375 124.381256Q54.065624 123.787506 54.346874 123.225006L55.01875 123.225006L55.01875 131.85ZM58.05 127.61563Q58.05 126.08438 58.3625 125.162506Q58.675 124.225006 59.284374 123.725006Q59.909374 123.225006 60.846874 123.225006Q61.534374 123.225006 62.05 123.506256Q62.58125 123.787506 62.925 124.318756Q63.26875 124.83438 63.45625 125.58438Q63.64375 126.33438 63.64375 127.61563Q63.64375 129.13126 63.33125 130.05313Q63.034374 130.975 62.409374 131.49063Q61.8 131.99063 60.846874 131.99063Q59.6125 131.99063 58.89375 131.1Q58.05 130.0375 58.05 127.61563ZM59.128124 127.61563Q59.128124 129.725 59.628124 130.42813Q60.128124 131.13126 60.846874 131.13126Q61.58125 131.13126 62.065624 130.42813Q62.565624 129.725 62.565624 127.61563Q62.565624 125.49063 62.065624 124.80313Q61.58125 124.100006 60.83125 124.100006Q60.1125 124.100006 59.675 124.70938Q59.128124 125.49063 59.128124 127.61563ZM65.05 127.61563Q65.05 126.08438 65.3625 125.162506Q65.675 124.225006 66.28438 123.725006Q66.90938 123.225006 67.84688 123.225006Q68.53438 123.225006 69.05 123.506256Q69.58125 123.787506 69.925 124.318756Q70.26875 124.83438 70.45625 125.58438Q70.64375 126.33438 70.64375 127.61563Q70.64375 129.13126 70.33125 130.05313Q70.03438 130.975 69.40938 131.49063Q68.8 131.99063 67.84688 131.99063Q66.6125 131.99063 65.89375 131.1Q65.05 130.0375 65.05 127.61563ZM66.12813 127.61563Q66.12813 129.725 66.62813 130.42813Q67.12813 131.13126 67.84688 131.13126Q68.58125 131.13126 69.06563 130.42813Q69.56563 129.725 69.56563 127.61563Q69.56563 125.49063 69.06563 124.80313Q68.58125 124.100006 67.83125 124.100006Q67.1125 124.100006 66.675 124.70938Q66.12813 125.49063 66.12813 127.61563ZM72.05 127.61563Q72.05 126.08438 72.3625 125.162506Q72.675 124.225006 73.28438 123.725006Q73.90938 123.225006 74.84688 123.225006Q75.53438 123.225006 76.05 123.506256Q76.58125 123.787506 76.925 124.318756Q77.26875 124.83438 77.45625 125.58438Q77.64375 126.33438 77.64375 127.61563Q77.64375 129.13126 77.33125 130.05313Q77.03438 130.975 76.40938 131.49063Q75.8 131.99063 74.84688 131.99063Q73.6125 131.99063 72.89375 131.1Q72.05 130.0375 72.05 127.61563ZM73.12813 127.61563Q73.12813 129.725 73.62813 130.42813Q74.12813 131.13126 74.84688 131.13126Q75.58125 131.13126 76.06563 130.42813Q76.56563 129.725 76.56563 127.61563Q76.56563 125.49063 76.06563 124.80313Q75.58125 124.100006 74.83125 124.100006Q74.1125 124.100006 73.675 124.70938Q73.12813 125.49063 73.12813 127.61563ZM79.05 127.61563Q79.05 126.08438 79.3625 125.162506Q79.675 124.225006 80.28438 123.725006Q80.90938 123.225006 81.84688 123.225006Q82.53438 123.225006 83.05 123.506256Q83.58125 123.787506 83.925 124.318756Q84.26875 124.83438 84.45625 125.58438Q84.64375 126.33438 84.64375 127.61563Q84.64375 129.13126 84.33125 130.05313Q84.03438 130.975 83.40938 131.49063Q82.8 131.99063 81.84688 131.99063Q80.6125 131.99063 79.89375 131.1Q79.05 130.0375 79.05 127.61563ZM80.12813 127.61563Q80.12813 129.725 80.62813 130.42813Q81.12813 131.13126 81.84688 131.13126Q82.58125 131.13126 83.06563 130.42813Q83.56563 129.725 83.56563 127.61563Q83.56563 125.49063 83.06563 124.80313Q82.58125 124.100006 81.83125 124.100006Q81.1125 124.100006 80.675 124.70938Q80.12813 125.49063 80.12813 127.61563ZM86.05 127.61563Q86.05 126.08438 86.3625 125.162506Q86.675 124.225006 87.28438 123.725006Q87.90938 123.225006 88.84688 123.225006Q89.53438 123.225006 90.05 123.506256Q90.58125 123.787506 90.925 124.318756Q91.26875 124.83438 91.45625 125.58438Q91.64375 126.33438 91.64375 127.61563Q91.64375 129.13126 91.33125 130.05313Q91.03438 130.975 90.40938 131.49063Q89.8 131.99063 88.84688 131.99063Q87.6125 131.99063 86.89375 131.1Q86.05 130.0375 86.05 127.61563ZM87.12813 127.61563Q87.12813 129.725 87.62813 130.42813Q88.12813 131.13126 88.84688 131.13126Q89.58125 131.13126 90.06563 130.42813Q90.56563 129.725 90.56563 127.61563Q90.56563 125.49063 90.06563 124.80313Q89.58125 124.100006 88.83125 124.100006Q88.1125 124.100006 87.675 124.70938Q87.12813 125.49063 87.12813 127.61563Z"
     fill-rule="nonzero"
     id="path33" />
  <path
     fill="#000000"
     d="M55.01875 29.55L53.971874 29.55L53.971874 22.83125Q53.58125 23.190624 52.95625 23.565624Q52.346874 23.925 51.8625 24.096874L51.8625 23.08125Q52.7375 22.659374 53.39375 22.08125Q54.065624 21.4875 54.346874 20.925L55.01875 20.925L55.01875 29.55ZM58.05 27.3L59.159374 27.20625Q59.284374 28.01875 59.721874 28.425Q60.175 28.83125 60.815624 28.83125Q61.565624 28.83125 62.096874 28.253124Q62.628124 27.675 62.628124 26.7375Q62.628124 25.83125 62.1125 25.315624Q61.6125 24.784374 60.784374 24.784374Q60.284374 24.784374 59.8625 25.01875Q59.45625 25.253124 59.221874 25.6125L58.2375 25.4875L59.065624 21.08125L63.346874 21.08125L63.346874 22.08125L59.909374 22.08125L59.45625 24.39375Q60.221874 23.846874 61.065624 23.846874Q62.190624 23.846874 62.95625 24.628124Q63.7375 25.409374 63.7375 26.64375Q63.7375 27.8 63.065624 28.659374Q62.2375 29.690624 60.815624 29.690624Q59.64375 29.690624 58.89375 29.034374Q58.159374 28.378124 58.05 27.3ZM65.05 25.315624Q65.05 23.784374 65.3625 22.8625Q65.675 21.925 66.28438 21.425Q66.90938 20.925 67.84688 20.925Q68.53438 20.925 69.05 21.20625Q69.58125 21.4875 69.925 22.01875Q70.26875 22.534374 70.45625 23.284374Q70.64375 24.034374 70.64375 25.315624Q70.64375 26.83125 70.33125 27.753124Q70.03438 28.675 69.40938 29.190624Q68.8 29.690624 67.84688 29.690624Q66.6125 29.690624 65.89375 28.8Q65.05 27.7375 65.05 25.315624ZM66.12813 25.315624Q66.12813 27.425 66.62813 28.128124Q67.12813 28.83125 67.84688 28.83125Q68.58125 28.83125 69.06563 28.128124Q69.56563 27.425 69.56563 25.315624Q69.56563 23.190624 69.06563 22.503124Q68.58125 21.8 67.83125 21.8Q67.1125 21.8 66.675 22.409374Q66.12813 23.190624 66.12813 25.315624ZM72.05 25.315624Q72.05 23.784374 72.3625 22.8625Q72.675 21.925 73.28438 21.425Q73.90938 20.925 74.84688 20.925Q75.53438 20.925 76.05 21.20625Q76.58125 21.4875 76.925 22.01875Q77.26875 22.534374 77.45625 23.284374Q77.64375 24.034374 77.64375 25.315624Q77.64375 26.83125 77.33125 27.753124Q77.03438 28.675 76.40938 29.190624Q75.8 29.690624 74.84688 29.690624Q73.6125 29.690624 72.89375 28.8Q72.05 27.7375 72.05 25.315624ZM73.12813 25.315624Q73.12813 27.425 73.62813 28.128124Q74.12813 28.83125 74.84688 28.83125Q75.58125 28.83125 76.06563 28.128124Q76.56563 27.425 76.56563 25.315624Q76.56563 23.190624 76.06563 22.503124Q75.58125 21.8 74.83125 21.8Q74.1125 21.8 73.675 22.409374Q73.12813 23.190624 73.12813 25.315624ZM79.05 25.315624Q79.05 23.784374 79.3625 22.8625Q79.675 21.925 80.28438 21.425Q80.90938 20.925 81.84688 20.925Q82.53438 20.925 83.05 21.20625Q83.58125 21.4875 83.925 22.01875Q84.26875 22.534374 84.45625 23.284374Q84.64375 24.034374 84.64375 25.315624Q84.64375 26.83125 84.33125 27.753124Q84.03438 28.675 83.40938 29.190624Q82.8 29.690624 81.84688 29.690624Q80.6125 29.690624 79.89375 28.8Q79.05 27.7375 79.05 25.315624ZM80.12813 25.315624Q80.12813 27.425 80.62813 28.128124Q81.12813 28.83125 81.84688 28.83125Q82.58125 28.83125 83.06563 28.128124Q83.56563 27.425 83.56563 25.315624Q83.56563 23.190624 83.06563 22.503124Q82.58125 21.8 81.83125 21.8Q81.1125 21.8 80.675 22.409374Q80.12813 23.190624 80.12813 25.315624ZM86.05 25.315624Q86.05 23.784374 86.3625 22.8625Q86.675 21.925 87.28438 21.425Q87.90938 20.925 88.84688 20.925Q89.53438 20.925 90.05 21.20625Q90.58125 21.4875 90.925 22.01875Q91.26875 22.534374 91.45625 23.284374Q91.64375 24.034374 91.64375 25.315624Q91.64375 26.83125 91.33125 27.753124Q91.03438 28.675 90.40938 29.190624Q89.8 29.690624 88.84688 29.690624Q87.6125 29.690624 86.89375 28.8Q86.05 27.7375 86.05 25.315624ZM87.12813 25.315624Q87.12813 27.425 87.62813 28.128124Q88.12813 28.83125 88.84688 28.83125Q89.58125 28.83125 90.06563 28.128124Q90.56563 27.425 90.56563 25.315624Q90.56563 23.190624 90.06563 22.503124Q89.58125 21.8 88.83125 21.8Q88.1125 21.8 87.675 22.409374Q87.12813 23.190624 87.12813 25.315624Z"
     fill-rule="nonzero"
     id="path35" />
  <text
     xml:space="preserve"
     style="font-style:normal;font-weight:normal;font-size:12px;line-height:1.25;font-family:sans-serif;letter-spacing:0px;word-spacing:0px;fill:#000000;fill-opacity:1;stroke:none"
     x="160.45456"
     y="348.72726"
     id="text53"><tspan
       sodipodi:role="line"
       id="tspan51"
       x="160.45456"
       y="348.72726">unmodified</tspan></text>
  <text
     xml:space="preserve"
     style="font-style:normal;font-weight:normal;font-size:12px;line-height:1.25;font-family:sans-serif;letter-spacing:0px;word-spacing:0px;fill:#000000;fill-opacity:1;stroke:none"
     x="311.63635"
     y="348.72726"
     id="text57"><tspan
       sodipodi:role="line"
       id="tspan55"
       x="311.63635"
       y="348.72726">--asyncify</tspan></text>
  <text
     xml:space="preserve"
     style="font-style:normal;font-weight:normal;font-size:12px;line-height:1.25;font-family:sans-serif;letter-spacing:0px;word-spacing:0px;fill:#000000;fill-opacity:1;stroke:none"
     x="446.18182"
     y="348.72726"
     id="text61"><tspan
       sodipodi:role="line"
       id="tspan59"
       x="446.18182"
       y="348.72726">-O --asyncify</tspan></text>
</svg>
